<?xml version="1.0" encoding="utf-8" standalone="no"?>
<!DOCTYPE svg PUBLIC "-//W3C//DTD SVG 1.1//EN"
  "http://www.w3.org/Graphics/SVG/1.1/DTD/svg11.dtd">
<!-- Created with matplotlib (https://matplotlib.org/) -->
<svg height="18000pt" version="1.1" viewBox="0 0 93600 18000" width="93600pt" xmlns="http://www.w3.org/2000/svg" xmlns:xlink="http://www.w3.org/1999/xlink">
 <metadata>
  <rdf:RDF xmlns:cc="http://creativecommons.org/ns#" xmlns:dc="http://purl.org/dc/elements/1.1/" xmlns:rdf="http://www.w3.org/1999/02/22-rdf-syntax-ns#">
   <cc:Work>
    <dc:type rdf:resource="http://purl.org/dc/dcmitype/StillImage"/>
    <dc:date>2020-09-12T23:46:20.831475</dc:date>
    <dc:format>image/svg+xml</dc:format>
    <dc:creator>
     <cc:Agent>
      <dc:title>Matplotlib v3.3.1, https://matplotlib.org/</dc:title>
     </cc:Agent>
    </dc:creator>
   </cc:Work>
  </rdf:RDF>
 </metadata>
 <defs>
  <style type="text/css">*{stroke-linecap:butt;stroke-linejoin:round;}</style>
 </defs>
 <g id="figure_1">
  <g id="patch_1">
   <path d="M 0 18000 
L 93600 18000 
L 93600 0 
L 0 0 
z
" style="fill:#ffffff;"/>
  </g>
  <g id="axes_1">
   <g id="patch_2">
    <path clip-path="url(#p79efc25f34)" d="M 14997.272727 9352.5 
L 20380.575139 9352.5 
L 20380.575139 9286.875 
L 14997.272727 9286.875 
z
" style="fill:#1f77b4;"/>
   </g>
   <g id="patch_3">
    <path clip-path="url(#p79efc25f34)" d="M 21726.400742 9352.5 
L 27109.703154 9352.5 
L 27109.703154 8696.25 
L 21726.400742 8696.25 
z
" style="fill:#1f77b4;"/>
   </g>
   <g id="patch_4">
    <path clip-path="url(#p79efc25f34)" d="M 28455.528757 9352.5 
L 33838.831169 9352.5 
L 33838.831169 12633.75 
L 28455.528757 12633.75 
z
" style="fill:#1f77b4;"/>
   </g>
   <g id="patch_5">
    <path clip-path="url(#p79efc25f34)" d="M 35184.656772 9352.5 
L 40567.959184 9352.5 
L 40567.959184 2790 
L 35184.656772 2790 
z
" style="fill:#1f77b4;"/>
   </g>
   <g id="patch_6">
    <path clip-path="url(#p79efc25f34)" d="M 41913.784787 9352.5 
L 47297.087199 9352.5 
L 47297.087199 9615 
L 41913.784787 9615 
z
" style="fill:#1f77b4;"/>
   </g>
   <g id="patch_7">
    <path clip-path="url(#p79efc25f34)" d="M 48642.912801 9352.5 
L 54026.215213 9352.5 
L 54026.215213 9418.125 
L 48642.912801 9418.125 
z
" style="fill:#1f77b4;"/>
   </g>
   <g id="patch_8">
    <path clip-path="url(#p79efc25f34)" d="M 55372.040816 9352.5 
L 60755.343228 9352.5 
L 60755.343228 15390 
L 55372.040816 15390 
z
" style="fill:#1f77b4;"/>
   </g>
   <g id="patch_9">
    <path clip-path="url(#p79efc25f34)" d="M 62101.168831 9352.5 
L 67484.471243 9352.5 
L 67484.471243 6071.25 
L 62101.168831 6071.25 
z
" style="fill:#1f77b4;"/>
   </g>
   <g id="patch_10">
    <path clip-path="url(#p79efc25f34)" d="M 68830.296846 9352.5 
L 74213.599258 9352.5 
L 74213.599258 8565 
L 68830.296846 8565 
z
" style="fill:#1f77b4;"/>
   </g>
   <g id="patch_11">
    <path clip-path="url(#p79efc25f34)" d="M 75559.424861 9352.5 
L 80942.727273 9352.5 
L 80942.727273 8565 
L 75559.424861 8565 
z
" style="fill:#1f77b4;"/>
   </g>
  </g>
 </g>
 <defs>
  <clipPath id="p79efc25f34">
   <rect height="13860" width="72540" x="11700" y="2160"/>
  </clipPath>
 </defs>
</svg>
